# xmcd
#
# Track frame offsets: 
#        225
#        17493
#        40641
#        58494
#        81381
#        101746
#        124181
#        153053
#        172479
#        203880
#        223592
#        235101
#        252878
#        278906
#        295167
#
# Disc length: 4224 seconds
#
# Revision: 7
# Processed by: cddbd v1.5.1PL2 Copyright (c) Steve Scherf et al.
# Submitted via: ExactAudioCopy v0.95b4
#
DISCID=dc107d0f
DTITLE=Taj Mahal - An Evening Of Acoustic Music
DYEAR=1994
DGENRE=Blues
TTITLE0=Stagger Lee
TTITLE1=Dust My Broom
TTITLE2=Take This Hammer
TTITLE3=Blues With A Feeling
TTITLE4=Big Legged Mamas Are Back In Style Again
TTITLE5=Crossing
TTITLE6=Come On In My Kitchen
TTITLE7=Candy Man
TTITLE8=Satisfied 'N' Tickled Too
TTITLE9=Sittin' On Top Of The World
TTITLE10=Cake Walk Into Town
TTITLE11=Ain't Gwine To Whistle Dixie Anymo'
TTITLE12=Big Kneed Gal
TTITLE13=Texas Woman Blues
TTITLE14=Tom and Sally Drake
EXTD=
EXTT0=
EXTT1=
EXTT2=
EXTT3=
EXTT4=
EXTT5=
EXTT6=
EXTT7=
EXTT8=
EXTT9=
EXTT10=
EXTT11=
EXTT12=
EXTT13=
EXTT14=
PLAYORDER=
